<?xml version="1.0" encoding="utf-8"?>
<!-- Generator: Adobe Illustrator 27.5.0, SVG Export Plug-In . SVG Version: 6.00 Build 0)  -->
<svg version="1.1" id="Capa_1" xmlns="http://www.w3.org/2000/svg" xmlns:xlink="http://www.w3.org/1999/xlink" x="0px" y="0px"
	 viewBox="0 0 2284 1971" style="enable-background:new 0 0 2284 1971;" xml:space="preserve">
<path style="fill:#6E2885;" d="M458.747,1227.434c31.693,36.964,123.298,141.616,231.262,245.133
	c183.233,175.686,325.192,264.766,421.932,264.766c8.602,0,17.003-0.691,24.973-2.055l0.856-0.155l0.018-0.003l0.007-0.002
	l1.001-0.302l1.418-0.3c11.54-2.27,22.408-5.886,32.275-10.905c80.667-41.039,146.911-138.12,191.571-280.748
	c39.051-124.72,60.974-283.261,61.729-446.42c0.77-166.494-20.398-329.384-59.605-458.663
	c-44.729-147.487-111.626-247.956-193.458-290.545c-10.779-5.61-22.706-9.616-35.453-11.908l-1.102-0.099
	c-8.075-1.384-16.592-2.097-25.346-2.099h-0.025c-95.852,0-237.271,85.774-420.345,254.954
	c-133.457,123.329-242.15,248.39-243.232,249.638c-0.783,0.904-1.422,1.902-2.081,2.888c-34.355-5.941-93.031-14.519-145.494-14.52
	c-42.545,0-73.425,5.617-94.405,17.174C105.774,798.054,96.887,895.568,96.59,982.872l-0.015,0.951l0.004,0.933l0.003,0.522
	l-0.003,0.443l-0.004,0.934l0.015,0.951c0.297,87.305,9.184,184.818,108.652,239.61c20.979,11.556,51.859,17.173,94.405,17.173
	C359.916,1244.389,428.384,1233.07,458.747,1227.434z"/>
<path style="fill:#6E2885;" d="M1577.477,1089.502c-26.914,10.426-47.801,30.479-58.816,56.466
	c-10.669,25.173-10.688,52.911-0.053,78.103c16.407,38.854,54.997,63.958,98.314,63.958c13.514,0,26.767-2.479,39.392-7.368
	C1782.479,1231.794,1864,1115.742,1864,985.005c0-130.735-81.521-246.786-207.685-295.653c-12.632-4.888-25.882-7.365-39.388-7.365
	h-0.001c-43.325,0.001-81.917,25.105-98.319,63.955c-10.635,25.193-10.616,52.931,0.053,78.104
	c11.015,25.987,31.902,46.04,58.815,56.465c45.031,17.44,74.127,58.456,74.127,104.494
	C1651.603,1031.044,1622.507,1072.062,1577.477,1089.502z"/>
<path style="fill:#6E2885;" d="M1843.518,458.524c-12.831-5.367-26.321-8.088-40.094-8.088l0,0
	c-43.666,0-82.373,26.845-98.61,68.392c-21.647,55.378,4.573,118.768,58.45,141.304c128.477,53.743,211.494,181.263,211.494,324.873
	c0,143.612-83.017,271.134-211.494,324.877c-53.875,22.536-80.095,85.925-58.45,141.305c16.238,41.547,54.943,68.393,98.604,68.393
	c13.779,0,27.271-2.722,40.103-8.09c208.75-87.322,343.635-293.98,343.635-526.484
	C2187.155,752.503,2052.27,545.847,1843.518,458.524z"/>
<path style="fill:#F18550;" d="M1396.639,946.162l-0.009-0.472c-0.186-8.369-0.432-16.731-0.73-25.082l-0.048-1.334
	c-0.306-8.386-0.663-16.761-1.081-25.12l-0.01-0.189c-1.285-25.645-3.102-51.138-5.447-76.352l-0.063-0.674
	c-3.146-33.696-7.238-66.892-12.276-99.28l-0.013-0.089c-1.215-7.806-2.502-15.549-3.827-23.257
	c-0.388-2.257-0.791-4.498-1.189-6.745c-1.004-5.681-2.037-11.333-3.102-16.956c-0.429-2.267-0.855-4.536-1.294-6.793
	c-1.345-6.917-2.73-13.792-4.166-20.611c-0.135-0.643-0.262-1.296-0.398-1.937c-1.603-7.552-3.274-15.028-4.99-22.45
	c-0.415-1.792-0.845-3.565-1.266-5.349c-1.349-5.719-2.731-11.396-4.148-17.029c-0.498-1.981-0.996-3.961-1.503-5.931
	c-1.626-6.328-3.294-12.602-5.006-18.815c-0.238-0.862-0.465-1.739-0.704-2.599c-2.007-7.211-4.077-14.333-6.201-21.379
	c-0.371-1.228-0.755-2.435-1.129-3.658c-1.762-5.765-3.564-11.469-5.404-17.115c-0.541-1.66-1.084-3.314-1.633-4.963
	c-1.935-5.825-3.911-11.586-5.931-17.276c-0.321-0.904-0.632-1.824-0.955-2.724c-2.427-6.764-4.913-13.431-7.46-19.992
	c-0.225-0.579-0.459-1.142-0.685-1.719c-2.267-5.799-4.587-11.504-6.949-17.136c-0.561-1.336-1.125-2.663-1.691-3.989
	c-2.27-5.322-4.582-10.566-6.938-15.728c-0.388-0.85-0.768-1.716-1.159-2.561c-5.584-12.1-11.415-23.728-17.477-34.883
	c-0.561-1.032-1.128-2.051-1.694-3.075c-2.606-4.721-5.255-9.351-7.947-13.889c-0.476-0.801-0.944-1.616-1.422-2.411
	c-31.284-52.035-68.347-91.59-111.219-113.903c-42.375,151.835-70.862,306.566-85.623,462.301
	c52.763,4.021,101.027,24.36,139.684,56.057c56.198,46.078,92.126,116.005,92.126,194.179c0,52.325-16.111,100.947-43.604,141.208
	c-41.844,61.277-110.104,103.087-188.245,109.03c8.916,94.052,22.875,187.732,41.869,280.64
	c11.348,55.507,24.435,110.746,39.381,165.608l4.387,16.102l0.049,0.196c3.985-2.027,7.906-4.241,11.79-6.561
	c0.554-0.331,1.113-0.647,1.665-0.984c3.69-2.252,7.33-4.648,10.929-7.156c0.667-0.465,1.333-0.933,1.997-1.407
	c3.572-2.548,7.103-5.209,10.584-8.006c0.552-0.443,1.096-0.905,1.646-1.355c3.617-2.958,7.199-6.014,10.717-9.235l0.274-0.259
	c3.491-3.204,6.922-6.563,10.315-10.019l1.396-1.409c3.279-3.385,6.505-6.903,9.692-10.518c0.591-0.67,1.181-1.341,1.769-2.018
	c3.147-3.63,6.253-7.363,9.31-11.21c0.506-0.637,1.006-1.29,1.51-1.933c3.155-4.029,6.275-8.144,9.334-12.4l0.461-0.658
	c3.011-4.209,5.969-8.54,8.886-12.962c0.38-0.578,0.766-1.142,1.146-1.723c2.867-4.391,5.68-8.902,8.455-13.494
	c0.511-0.845,1.022-1.69,1.529-2.542c2.728-4.577,5.412-9.244,8.049-14.01c0.453-0.817,0.899-1.646,1.349-2.469
	c2.707-4.955,5.38-9.984,7.991-15.132l0.525-1.056c2.571-5.093,5.091-10.285,7.568-15.559c0.295-0.628,0.595-1.243,0.889-1.874
	c2.46-5.28,4.864-10.662,7.23-16.115c0.427-0.982,0.854-1.963,1.277-2.951c2.313-5.398,4.583-10.874,6.806-16.431
	c0.385-0.962,0.765-1.934,1.148-2.901c2.271-5.746,4.507-11.557,6.683-17.465c0.178-0.482,0.349-0.973,0.526-1.457
	c2.15-5.869,4.251-11.818,6.308-17.839c0.208-0.61,0.423-1.211,0.63-1.823c2.058-6.067,4.058-12.222,6.021-18.434
	c0.332-1.052,0.666-2.101,0.995-3.156c1.911-6.119,3.775-12.304,5.594-18.555c0.306-1.05,0.606-2.105,0.91-3.159
	c1.85-6.435,3.663-12.924,5.418-19.49c0.147-0.551,0.288-1.109,0.435-1.661c1.76-6.626,3.473-13.315,5.135-20.067l0.354-1.414
	c1.66-6.776,3.26-13.625,4.822-20.519c0.235-1.04,0.474-2.076,0.707-3.118c1.511-6.754,2.977-13.564,4.395-20.424
	c0.219-1.058,0.435-2.12,0.651-3.181c1.436-7.03,2.832-14.104,4.171-21.237c0.105-0.559,0.205-1.123,0.309-1.683
	c1.37-7.347,2.692-14.742,3.958-22.189l0.126-0.722c1.255-7.406,2.45-14.868,3.603-22.365c0.144-0.94,0.292-1.878,0.435-2.82
	c1.11-7.304,2.17-14.65,3.183-22.032c0.136-0.987,0.269-1.976,0.402-2.964c1.02-7.537,1.998-15.106,2.917-22.715
	c0.061-0.499,0.117-1,0.177-1.499c1.9-15.84,3.581-31.829,5.047-47.933c0.068-0.749,0.14-1.496,0.207-2.246
	c0.697-7.766,1.341-15.56,1.937-23.375c0.065-0.857,0.129-1.713,0.193-2.571c0.593-7.928,1.141-15.876,1.631-23.846l0.072-1.228
	c1.006-16.559,1.788-33.2,2.349-49.885l0.05-1.438c0.267-8.131,0.478-16.272,0.638-24.42c0.013-0.658,0.025-1.316,0.038-1.974
	c0.154-8.243,0.259-16.493,0.304-24.745l0.002-0.604C1397.158,980.326,1397.015,963.23,1396.639,946.162z"/>
<path style="fill:#FDD498;" d="M1124.739,1679.272c-121.989-454.713-121.933-933.412-0.039-1387.927
	c2.477-9.234,4.916-18.475,7.493-27.688c-9.499-1.708-19.566-2.153-30.095-1.52c-1.835,0.11-3.7,0.292-5.564,0.469
	c-1.554,0.148-3.102,0.28-4.676,0.474c-2.002,0.246-4.034,0.563-6.067,0.883c-1.471,0.231-2.935,0.447-4.421,0.716
	c-2.191,0.397-4.411,0.862-6.636,1.34c-1.363,0.292-2.719,0.568-4.094,0.891c-2.39,0.56-4.808,1.188-7.234,1.835
	c-1.244,0.332-2.482,0.65-3.736,1.005c-2.59,0.734-5.208,1.534-7.836,2.364c-1.116,0.352-2.226,0.691-3.349,1.06
	c-2.81,0.923-5.645,1.913-8.494,2.941c-0.959,0.346-1.914,0.68-2.877,1.037c-3.031,1.125-6.089,2.314-9.162,3.551
	c-0.805,0.323-1.606,0.638-2.414,0.969c-3.255,1.335-6.534,2.737-9.833,4.191c-0.636,0.28-1.268,0.553-1.905,0.837
	c-3.483,1.556-6.99,3.178-10.517,4.862l-1.391,0.661c-3.704,1.781-7.432,3.631-11.182,5.546l-0.879,0.447
	c-3.918,2.01-7.858,4.089-11.82,6.238l-0.392,0.212c-4.096,2.225-8.215,4.521-12.355,6.888l-0.04,0.023
	c-3.878,2.217-7.777,4.51-11.688,6.845l-0.965,0.565l0.008,0.013C735.35,449.14,468.912,756.519,468.912,756.519v438.549
	c0,0,100.345,120.33,228.242,244.497h-0.007l0.573,0.553c4.326,4.198,8.681,8.4,13.068,12.603l0.387,0.368
	c4.291,4.108,8.61,8.217,12.953,12.319c0.94,0.889,1.89,1.775,2.833,2.664c3.532,3.327,7.074,6.652,10.636,9.97
	c1.296,1.208,2.599,2.411,3.9,3.617c3.247,3.011,6.501,6.019,9.77,9.018c1.451,1.331,2.907,2.657,4.362,3.985
	c3.144,2.87,6.295,5.733,9.457,8.587c1.532,1.383,3.066,2.761,4.601,4.14c3.116,2.798,6.241,5.584,9.371,8.362
	c1.568,1.391,3.135,2.781,4.706,4.166c3.158,2.785,6.324,5.554,9.494,8.315c1.516,1.321,3.031,2.644,4.551,3.959
	c3.305,2.861,6.617,5.699,9.932,8.527c1.392,1.188,2.781,2.383,4.174,3.565c3.595,3.05,7.196,6.07,10.799,9.078
	c1.113,0.93,2.225,1.871,3.339,2.796c4.578,3.802,9.16,7.569,13.745,11.294l0.38,0.311c4.873,3.956,9.748,7.866,14.622,11.724
	l0.434,0.34c4.551,3.599,9.101,7.15,13.647,10.656c1.211,0.933,2.42,1.842,3.63,2.769c3.479,2.663,6.957,5.311,10.43,7.914
	c1.551,1.162,3.097,2.297,4.647,3.446c3.138,2.328,6.274,4.643,9.405,6.918c1.694,1.23,3.384,2.438,5.076,3.652
	c2.98,2.139,5.957,4.26,8.928,6.346c1.769,1.242,3.533,2.467,5.298,3.689c2.897,2.007,5.788,3.987,8.674,5.939
	c1.787,1.21,3.571,2.409,5.354,3.598c2.866,1.909,5.723,3.783,8.575,5.635c1.768,1.148,3.536,2.298,5.298,3.423
	c2.889,1.845,5.766,3.641,8.638,5.423c1.695,1.051,3.392,2.115,5.081,3.143c3.008,1.833,6,3.602,8.988,5.362
	c1.522,0.896,3.051,1.817,4.567,2.694c3.406,1.969,6.79,3.859,10.166,5.725c1.074,0.594,2.157,1.221,3.227,1.804
	c8.913,4.855,17.711,9.337,26.375,13.419c1.287,0.606,2.555,1.156,3.836,1.744c2.999,1.378,5.993,2.74,8.957,4.017
	c1.572,0.677,3.123,1.297,4.685,1.944c2.643,1.096,5.281,2.181,7.894,3.192c1.673,0.648,3.329,1.247,4.99,1.859
	c2.474,0.912,4.941,1.804,7.385,2.635c1.691,0.576,3.369,1.114,5.046,1.65c2.381,0.761,4.75,1.487,7.1,2.167
	c1.675,0.485,3.341,0.947,5,1.389c2.319,0.619,4.617,1.186,6.903,1.721c1.634,0.382,3.265,0.758,4.882,1.097
	c2.281,0.478,4.536,0.887,6.782,1.276c1.566,0.272,3.137,0.555,4.685,0.783c2.3,0.338,4.565,0.588,6.825,0.828
	c1.433,0.152,2.881,0.338,4.297,0.449c1.024,0.082,2.016,0.085,3.031,0.145c9.98,0.589,19.579,0.251,28.656-1.312l-4.823-17.703
	C1126.463,1685.937,1125.631,1682.598,1124.739,1679.272z"/>
<path style="fill:#FDD498;" d="M440.209,1195.068V768.902c-33.356-5.753-90.431-14.11-140.563-14.111
	c-32.601,0-62.258,3.532-80.556,13.612C139.4,812.3,125.553,888.309,125.289,983.824h-0.012l0.006,1.415l-0.006,1.416h0.012
	c0.264,95.514,14.111,171.523,93.802,215.421c18.295,10.077,47.963,13.611,80.556,13.611c50.55,0,108.135-8.493,141.369-14.25
	C440.54,1199.354,440.209,1197.234,440.209,1195.068z"/>
<path style="fill:#EE763B;" d="M1396.63,945.69c-0.186-8.369-0.432-16.731-0.73-25.082l-0.048-1.334
	c-0.306-8.386-0.663-16.761-1.081-25.12l-0.01-0.189c-1.285-25.645-3.102-51.138-5.447-76.352l-0.063-0.674
	c-3.146-33.696-7.238-66.892-12.276-99.28l-0.013-0.089c-21.499-138.137-60.201-261.583-116.049-346.575
	c57.953,130.523,9.654,291.824-47.375,420.056c56.198,46.078,92.126,116.005,92.126,194.179c0,52.325-16.111,100.947-43.604,141.208
	c37.064,148.552,37.708,302.455-108.463,377.516c-12.321,7.041-25.052,10.862-37.913,12.154
	c11.348,55.507,24.435,110.746,39.381,165.608l4.387,16.102l0.049,0.196c3.985-2.027,7.906-4.241,11.79-6.561
	c0.554-0.331,1.113-0.647,1.665-0.984c3.69-2.252,7.33-4.648,10.929-7.156c0.667-0.465,1.333-0.933,1.997-1.407
	c3.572-2.548,7.103-5.209,10.584-8.006c0.552-0.443,1.096-0.905,1.646-1.355c3.617-2.958,7.199-6.014,10.717-9.235l0.274-0.259
	c3.491-3.204,6.922-6.563,10.315-10.019l1.396-1.409c3.279-3.385,6.505-6.903,9.692-10.518c0.591-0.67,1.181-1.341,1.769-2.018
	c3.147-3.63,6.253-7.363,9.31-11.21c0.506-0.637,1.006-1.29,1.51-1.933c3.155-4.029,6.275-8.144,9.334-12.4l0.461-0.658
	c3.011-4.209,5.969-8.54,8.886-12.962c0.38-0.578,0.766-1.142,1.146-1.723c2.867-4.391,5.68-8.902,8.455-13.494
	c0.511-0.845,1.022-1.69,1.529-2.542c2.728-4.577,5.412-9.244,8.049-14.01c0.453-0.817,0.899-1.646,1.349-2.469
	c2.707-4.955,5.38-9.984,7.991-15.132l0.525-1.056c2.571-5.093,5.091-10.285,7.568-15.559c0.295-0.628,0.595-1.243,0.889-1.874
	c2.46-5.28,4.864-10.662,7.23-16.115c0.427-0.982,0.854-1.963,1.277-2.951c2.313-5.398,4.583-10.874,6.806-16.431
	c0.385-0.962,0.765-1.934,1.148-2.901c2.271-5.746,4.507-11.557,6.683-17.465c0.178-0.482,0.349-0.973,0.526-1.457
	c2.15-5.869,4.251-11.818,6.308-17.839c0.208-0.61,0.423-1.211,0.63-1.823c2.058-6.067,4.058-12.222,6.021-18.434
	c0.332-1.052,0.666-2.101,0.995-3.156c1.911-6.119,3.775-12.304,5.594-18.555c0.306-1.05,0.606-2.105,0.91-3.159
	c1.85-6.435,3.663-12.924,5.418-19.49c0.147-0.551,0.288-1.109,0.435-1.661c1.76-6.626,3.473-13.315,5.135-20.067l0.354-1.414
	c1.66-6.776,3.26-13.625,4.822-20.519c0.235-1.04,0.474-2.076,0.707-3.118c1.511-6.754,2.977-13.564,4.395-20.424
	c0.219-1.058,0.435-2.12,0.651-3.181c1.436-7.03,2.832-14.104,4.171-21.237c0.105-0.559,0.205-1.123,0.309-1.683
	c1.37-7.347,2.692-14.742,3.958-22.189l0.126-0.722c1.255-7.406,2.45-14.868,3.603-22.365c0.144-0.94,0.292-1.878,0.435-2.82
	c1.11-7.304,2.17-14.65,3.183-22.032c0.136-0.987,0.269-1.976,0.402-2.964c1.02-7.537,1.998-15.106,2.917-22.715
	c0.061-0.499,0.117-1,0.177-1.499c1.9-15.84,3.581-31.829,5.047-47.933c0.068-0.749,0.14-1.496,0.207-2.246
	c0.697-7.766,1.341-15.56,1.937-23.375c0.065-0.857,0.129-1.713,0.193-2.571c0.593-7.928,1.141-15.876,1.631-23.846l0.072-1.228
	c1.006-16.559,1.788-33.2,2.349-49.885l0.05-1.438c0.267-8.131,0.478-16.272,0.638-24.42c0.013-0.658,0.025-1.316,0.038-1.974
	c0.154-8.243,0.259-16.493,0.304-24.745l0.002-0.604c0.089-17.087-0.054-34.183-0.43-51.251L1396.63,945.69z"/>
<path style="fill:#F18550;" d="M1835.298,985.005c0-118.791-74.323-224.335-189.349-268.888c-9.52-3.683-19.351-5.428-29.024-5.428
	c-30.652,0.001-59.679,17.527-71.875,46.416c-16.044,38.005,3.114,81.272,42.793,96.641c56.169,21.754,92.462,73.277,92.462,131.258
	c0,57.985-36.293,109.507-92.462,131.261c-39.679,15.37-58.837,58.637-42.793,96.643c12.199,28.887,41.22,46.418,71.871,46.418
	c9.673,0,19.508-1.745,29.027-5.431C1760.974,1209.343,1835.298,1103.799,1835.298,985.005z"/>
<path style="fill:#F18550;" d="M2158.453,985.005c0-220.895-127.967-417.158-326.01-500.002c-9.515-3.98-19.347-5.865-29.018-5.865
	c-30.649,0.001-59.681,18.934-71.877,50.138c-16.044,41.045,3.114,87.779,42.793,104.377
	c139.187,58.223,229.12,196.138,229.12,351.352c0,155.218-89.933,293.133-229.12,351.356
	c-39.679,16.598-58.837,63.329-42.793,104.377c12.196,31.203,41.22,50.139,71.871,50.139c9.673,0,19.509-1.885,29.025-5.866
	C2030.486,1402.167,2158.453,1205.901,2158.453,985.005z"/>
<path style="fill:#EC6833;" d="M1071.264,1206.89c115.013-8.523,205.697-104.469,205.697-221.659
	c0-117.19-90.682-213.133-205.692-221.659C1058.895,911.077,1058.889,1059.376,1071.264,1206.89z"/>
<path style="fill:#FCC574;" d="M1015.824,568.258c-51.665,160.733-258.322,269.802-200.917,459.238
	c45.924,132.031,200.917,332.947-5.74,396.092c-37.752,12.012-75.494,17.302-112.019,15.977c4.513,4.382,9.061,8.769,13.641,13.155
	l0.387,0.368c4.291,4.108,8.61,8.217,12.953,12.319c0.94,0.889,1.89,1.775,2.833,2.664c3.532,3.327,7.074,6.652,10.636,9.97
	c1.296,1.208,2.599,2.411,3.9,3.617c3.247,3.011,6.501,6.019,9.77,9.018c1.451,1.331,2.907,2.657,4.362,3.985
	c3.144,2.87,6.295,5.733,9.457,8.587c1.532,1.383,3.066,2.761,4.601,4.14c3.116,2.798,6.241,5.584,9.371,8.362
	c1.568,1.391,3.135,2.781,4.706,4.166c3.158,2.785,6.324,5.554,9.494,8.315c1.516,1.321,3.031,2.644,4.551,3.959
	c3.305,2.861,6.617,5.699,9.932,8.527c1.392,1.188,2.781,2.383,4.174,3.565c3.595,3.05,7.196,6.07,10.799,9.078
	c1.113,0.93,2.225,1.871,3.339,2.796c4.578,3.802,9.16,7.569,13.745,11.294l0.38,0.311c4.873,3.956,9.748,7.866,14.622,11.724
	l0.434,0.34c4.551,3.599,9.101,7.15,13.647,10.656c1.211,0.933,2.42,1.842,3.63,2.769c3.479,2.663,6.957,5.311,10.43,7.914
	c1.551,1.162,3.097,2.297,4.647,3.446c3.138,2.328,6.274,4.643,9.405,6.918c1.694,1.23,3.384,2.438,5.076,3.652
	c2.98,2.139,5.957,4.26,8.928,6.346c1.769,1.242,3.533,2.467,5.298,3.689c2.897,2.007,5.788,3.987,8.674,5.939
	c1.787,1.21,3.571,2.409,5.354,3.598c2.866,1.909,5.723,3.783,8.575,5.635c1.768,1.148,3.536,2.298,5.298,3.423
	c2.889,1.845,5.766,3.641,8.638,5.423c1.695,1.051,3.392,2.115,5.081,3.143c3.008,1.833,6,3.602,8.988,5.362
	c1.522,0.896,3.051,1.817,4.567,2.694c3.406,1.969,6.79,3.859,10.166,5.725c1.074,0.594,2.157,1.221,3.227,1.804
	c8.913,4.855,17.711,9.337,26.375,13.419c1.287,0.606,2.555,1.156,3.836,1.744c2.999,1.378,5.993,2.74,8.957,4.017
	c1.572,0.677,3.123,1.297,4.685,1.944c2.643,1.096,5.281,2.181,7.894,3.192c1.673,0.648,3.329,1.247,4.99,1.859
	c2.474,0.912,4.941,1.804,7.385,2.635c1.691,0.576,3.369,1.114,5.046,1.65c2.381,0.761,4.75,1.487,7.1,2.167
	c1.675,0.485,3.341,0.947,5,1.389c2.319,0.619,4.617,1.186,6.903,1.721c1.634,0.382,3.265,0.758,4.882,1.097
	c2.281,0.478,4.536,0.887,6.782,1.276c1.566,0.272,3.137,0.555,4.685,0.783c2.3,0.338,4.565,0.588,6.825,0.828
	c1.433,0.152,2.881,0.338,4.297,0.449c1.024,0.082,2.016,0.085,3.031,0.145c9.98,0.589,19.579,0.251,28.656-1.312l-4.823-17.703
	c-0.906-3.325-1.739-6.663-2.631-9.99c-121.989-454.713-121.933-933.412-0.039-1387.927c2.477-9.234,4.916-18.475,7.493-27.688
	c-9.499-1.708-19.566-2.153-30.095-1.52c-1.835,0.11-3.7,0.292-5.564,0.469c-1.554,0.148-3.102,0.28-4.676,0.474
	c-2.002,0.246-4.034,0.563-6.067,0.883c-1.471,0.231-2.935,0.447-4.421,0.716c-2.191,0.397-4.411,0.862-6.636,1.34
	c-1.363,0.292-2.719,0.568-4.094,0.891c-2.39,0.56-4.808,1.188-7.234,1.835c-1.244,0.332-2.482,0.65-3.736,1.005
	c-2.59,0.734-5.208,1.534-7.836,2.364c-1.116,0.352-2.226,0.691-3.349,1.06c-2.81,0.923-5.645,1.913-8.494,2.941
	c-0.959,0.346-1.914,0.68-2.877,1.037c-3.031,1.125-6.089,2.314-9.162,3.551c-0.805,0.323-1.606,0.638-2.414,0.969
	c-3.255,1.335-6.534,2.737-9.833,4.191c-0.636,0.28-1.268,0.553-1.905,0.837c-3.483,1.556-6.99,3.178-10.517,4.862l-1.391,0.661
	c-3.704,1.781-7.432,3.631-11.182,5.546l-0.879,0.447c-3.918,2.01-7.858,4.089-11.82,6.238l-0.392,0.212
	c-4.096,2.225-8.215,4.521-12.355,6.888l-0.04,0.023c-4.197,2.4-8.416,4.871-12.653,7.41
	C997.944,397.207,1042.18,476.009,1015.824,568.258z"/>
<path style="fill:#FFFFFF;" d="M624.903,1163.477c-11.081,0-11.1,17.221,0,17.221
	C635.984,1180.698,636.002,1163.477,624.903,1163.477z"/>
<path style="fill:#FFFFFF;" d="M919.543,1501.767c-11.081,0-11.1,17.221,0,17.221
	C930.623,1518.988,930.642,1501.767,919.543,1501.767z"/>
<path style="fill:#FFFFFF;" d="M982.29,1033.378c11.081,0,11.1-17.222,0-17.222C971.209,1016.157,971.19,1033.378,982.29,1033.378z"
	/>
<path style="fill:#FFFFFF;" d="M709.475,805.407c-11.081,0-11.099,17.221,0,17.221C720.556,822.629,720.575,805.407,709.475,805.407
	z"/>
<path style="fill:#FFFFFF;" d="M957.736,523.044c-11.081,0-11.099,17.221,0,17.221C968.818,540.265,968.836,523.044,957.736,523.044
	z"/>
<path style="fill:#FFFFFF;" d="M172.03,912.487c-11.081,0-11.1,17.221,0,17.221C183.111,929.708,183.13,912.487,172.03,912.487z"/>
<path style="fill:#FFFFFF;" d="M376.641,844.284c-11.081,0-11.1,17.221,0,17.221C387.722,861.505,387.741,844.284,376.641,844.284z"
	/>
<path style="fill:#FFFFFF;" d="M343.904,1051.622c-11.081,0-11.1,17.222,0,17.222
	C354.985,1068.844,355.003,1051.622,343.904,1051.622z"/>
<path style="fill:#FFFFFF;" d="M981.896,408.608c13.189-13.474-2.605-35.178-19.513-26.778
	c-148.435,77.289-302.983,214.954-393.161,356.261c-9.772,15.868,10.648,33.513,24.971,21.617
	c33.639-27.828,66.706-56.935,99.38-85.781C787.398,588.989,893.373,498.233,981.896,408.608z"/>
<ellipse transform="matrix(0.9951 -0.0989 0.0989 0.9951 -76.5425 56.8541)" style="fill:#FFFFFF;" cx="535.387" cy="800.741" rx="33.761" ry="33.761"/>
<path style="fill:#EE743B;" d="M1675.921,1150.007c11.082,0,11.099-17.222,0-17.222
	C1664.84,1132.785,1664.822,1150.007,1675.921,1150.007z"/>
<path style="fill:#EE743B;" d="M1778.227,945.395c11.081,0,11.099-17.221,0-17.221
	C1767.146,928.174,1767.128,945.395,1778.227,945.395z"/>
<path style="fill:#EE743B;" d="M1632.953,774.715c-11.081,0-11.1,17.221,0,17.221
	C1644.034,791.937,1644.053,774.715,1632.953,774.715z"/>
<path style="fill:#EE743B;" d="M1858.026,596.704c-11.082,0-11.1,17.221,0,17.221
	C1869.106,613.925,1869.125,596.704,1858.026,596.704z"/>
<path style="fill:#EE743B;" d="M2054.451,777.614c11.081,0,11.1-17.221,0-17.221
	C2043.371,760.393,2043.352,777.614,2054.451,777.614z"/>
<path style="fill:#EE743B;" d="M2054.451,1119.315c11.081,0,11.1-17.221,0-17.221
	C2043.371,1102.094,2043.352,1119.315,2054.451,1119.315z"/>
<path style="fill:#EE743B;" d="M2007.391,1323.926c11.081,0,11.1-17.222,0-17.222
	C1996.31,1306.704,1996.292,1323.926,2007.391,1323.926z"/>
<path style="fill:#EE743B;" d="M1827.333,1388.548c-11.081,0-11.1,17.222,0,17.222
	C1838.414,1405.77,1838.433,1388.548,1827.333,1388.548z"/>
<path style="fill:#EE743B;" d="M2103.558,978.815c11.081,0,11.1-17.222,0-17.222
	C2092.477,961.594,2092.459,978.815,2103.558,978.815z"/>
<path style="fill:#EE743B;" d="M1958.967,1299.372c11.081,0,11.099-17.221,0-17.221
	C1947.885,1282.151,1947.867,1299.372,1958.967,1299.372z"/>
</svg>
